<svg xmlns="http://www.w3.org/2000/svg" viewBox="50.1 43.1 174.1 173.4" enable-background="new 50.1 43.1 174.1 173.4"><path fill="#BB9D6E" d="M81.4 207.8c1.7 0 3.9-1.1 3.9-2.8 0 2.2 1.1 3.9 3.4 3.9s3.9-1.1 3.9-3.4c0-2.2.6-7.8 1.1-10.1 13.4 1.1 28.5-9 31.3-30.2 1.1-9-1.1-18.5-6.7-25.7-3.9-5-9-9-14.5-11.2.6-.6.6-1.7 1.1-2.8.6-2.2-.6-5-1.7-6.7-1.7-1.7-3.4-3.4-6.2-3.4-3.9 0-8.4 2.8-9.5 6.7v3.9c-1.1 0-2.2 0-2.8.6l-2.8-6.2c2.2-1.7 4.5-3.9 5-7.3.6-1.7.6-2.8.6-4.5l-1.1-16.6c0-1.7-.6-2.8-1.1-4.5l9-7.3s.6 0 .6.6c3.4 1.7 6.7 1.7 10.1.6l15.7-5.6c3.9-1.1 7.3-4.5 8.4-9h7.8c1.1 3.4 3.9 5.6 7.3 7.3l15.7 6.2c3.4 1.1 6.7 1.1 10.1 0l3.4 4.5c-1.1 1.7-1.7 2.8-1.7 3.9-.6 1.7-.6 3.4-.6 5.6l2.2 16.2c.6 5 3.9 9 8.4 10.6v5.6c-11.7.6-22.9 6.7-29.1 17.3-2.2 3.4-3.4 6.7-4.5 10.1-3.9 14.5 1.1 26.9 10.6 33l-5 8.4c-1.1 1.7-.6 3.9 1.1 5 1.7 1.1 3.9.6 5-1.1 0 0 0 .6-.6.6-.6 1.7 0 3.4 1.7 4.5s3.9.6 5-1.1c.6-.6 3.9-6.7 5.6-9 11.7 6.2 29.7 2.2 40.3-16.2 7.8-14 5-31.3-5.6-42 .6-.6 1.1-1.1 1.7-2.2.6-.6.6-1.1 1.1-2.2 1.1-3.9-.6-8.4-4.5-10.6-4.5-2.8-10.1-1.1-12.3 3.4-.6.6-.6 1.1-1.1 2.2v.6l-2.8-.6v-5.6c4.5-1.1 8.4-4.5 9.5-9 .6-1.7.6-3.4.6-5.6l-2.2-16.2c-1.1-7.3-7.8-12.3-14.5-11.2-1.1 0-2.2.6-3.4 1.1l-3.4-4.5c.6-.6 1.1-1.7 1.1-2.2 2.8-6.7-.6-14.5-7.3-17.3l-15.7-6.2c-3.4-1.1-6.7-1.1-10.1 0s-5.6 3.9-7.3 7.3l-.6 1.7v1.1h-7.3c-1.1-3.4-3.4-6.2-6.7-7.8-3.4-1.7-6.7-1.7-10.1-.6l-15.7 5.6c-2.8.6-6.2 3.9-7.3 8.4-.6 2.2-.6 5 0 7.8l.6 1.7-7.7 6.7c-2.8-1.1-5.6-2.2-8.4-1.7-5.6.6-10.1 3.9-11.7 9.5-.6 1.1-.6 2.8-.6 3.9l1.1 16.8c.6 7.3 6.7 12.3 13.4 12.3l2.2 6.2c-9 3.9-16.2 12.3-19.6 22.4-.6 1.7-.6 3.4-1.1 4.5-2.8 21.3 9 35.2 21.8 37.5-.6 2.2-1.1 9.5-1.1 10.1 1.2 2.7 2.3 4.3 4.6 4.3zm124.8-33c-6.2 11.2-19 19-30.8 12.9-3.4-1.7-7.8-.6-9.5 2.2 1.7-3.4.6-7.3-2.8-9.5-11.2-7.3-10.1-22.4-3.9-33 7.3-12.9 24.1-17.3 36.9-10.1 12.9 7.9 17.3 24.7 10.1 37.5zm-6.8-45.8c.6-.6 1.7-1.1 2.2-.6.6.6 1.1 1.1.6 1.7v.6c-.6.6-1.7 1.1-2.2.6-1.1-.7-1.1-1.8-.6-2.3zm-10-37.5l2.2 16.2v2.2c-.6 1.1-1.1 2.2-2.2 3.4v-5.6c0-2.2-1.7-3.9-3.4-3.9s-3.4 1.1-3.9 2.8v5.6c-.6-.6-1.1-1.7-1.1-2.8l-2.2-16.2v-1.2l2.8 3.4c1.1 1.7 3.9 1.7 5 .6 1.7-1.1 1.7-3.9.6-5l-2.8-3.9c2.2-.7 5 1.6 5 4.4zm-42.6-34.7c1.1-.6 2.8-.6 4.5 0l15.7 6.2c2.2 1.1 3.9 3.4 3.4 6.2l-1.7-2.2c-1.1-1.7-3.9-1.7-5-.6-.6.6-1.1 1.1-1.1 1.7-.6 1.1 0 2.2.6 3.4l1.7 2.2c-.6 0-1.1 0-1.7-.6l-15.7-6.2-1.1-.6h2.8c2.2 0 3.9-1.7 3.9-3.9s-1.7-3.9-3.9-3.9h-4.5l2.1-1.7zm-48.1 6.7l15.7-5.6c1.7-.6 2.8-.6 4.5 0l1.7 1.1h-2.8c-1.7 0-3.4 1.1-3.4 2.8v1.1c0 2.2 1.7 3.9 3.9 3.9h2.8l-2.2 1.7-15.7 5.6h-1.1l2.2-1.7c1.7-1.1 1.7-3.9.6-5-1.1-1.7-3.9-1.7-5-.6l-4.5 3.4c-.6-2.8 1.1-5.6 3.3-6.7zm-29.6 46.4l-1.1-16.8c0-2.8 2.2-5.6 5-6.2h1.1l-2.8 2.8c-.6.6-1.1 1.1-1.1 1.7-.6 1.1 0 2.2.6 3.4 1.1 1.7 3.9 1.7 5 .6l2.8-2.2 1.1 16.2v1.7l-.6 1.7-1.1-3.9c-.6-1.7-2.8-2.8-5-2.2-1.1.6-2.2 1.1-2.2 2.2v2.2l1.1 2.8c-1.7-.1-2.8-1.7-2.8-4zm25.7 16.3s-.6-.6-.6-1.1c0-1.1 1.1-1.7 1.7-1.1.6 0 1.1.6 1.1.6s.6.6.6 1.1c0 .6-1.1 1.1-1.7 1.1l-1.1-.6zm-30.2 30.7c2.2-15.1 15.7-25.2 30.8-22.9 7.3 1.1 13.4 5 17.9 10.6 4.5 5.6 6.2 12.9 5 20.1-2.2 16.8-13.4 24.6-23.5 23.5-3.9-.6-7.3 2.2-8.4 5.6.6-3.4-2.2-6.7-6.2-7.8-12.8-2.2-17.8-16.2-15.6-29.1z"/></svg>