<svg xmlns="http://www.w3.org/2000/svg" viewBox="0 0 24.7 13.6" enable-background="new 0 0 24.7 13.6"><path fill="#BB9D6E" d="M17.5 7.7c.9-.3 1.9-.7 2.9-1.2 1.5-.9 2.3 0 1.7 1.4-.5 1.3-3 3.7-5.2 4.3-.8-.6-2.5-1-4.4-1-1.9 0-3.6.4-4.4 1-2.2-.6-4.7-3-5.2-4.3-.6-1.4.2-2.3 1.7-1.4.9.5 1.9.9 2.8 1.2 2 .6 3.9.8 4.8.8h.5c1.1-.1 2.9-.2 4.8-.8zm-2.7-6.1c.8.4 2.1 4.1 2.6 5.6-1.9.6-3.6.7-4.6.7h-.5c-.9 0-2.7-.1-4.7-.7.5-1.5 1.8-5.2 2.6-5.6.9-.5 1.7.3 2.3.4h-.2.2.2c.4-.1 1.2-.9 2.1-.4zm-.3 2.8c0-.2-.1-.3-.3-.3-.2 0-.3.1-.3.3l-.9-.1-.4-.8c.1 0 .2-.2.2-.3 0-.2-.1-.3-.3-.3-.2 0-.3.1-.3.3 0 .1.1.2.2.3l-.4.8-.9.1c0-.1-.1-.3-.3-.3-.2 0-.3.1-.3.3 0 .2.1.3.3.3.1 0 .2-.1.2-.1l.7.6-.2 1h-.1c-.2 0-.3.1-.3.3s.1.3.3.3c.2 0 .3-.1.3-.3 0-.1 0-.1-.1-.2l.9-.5.9.5s-.1.1-.1.2c0 .2.1.3.3.3.2 0 .3-.1.3-.3s-.1-.3-.3-.3h-.1l-.2-1 .7-.6c.1.1.1.1.2.1.2 0 .3-.1.3-.3z"/></svg>